<?xml version="1.0" encoding="iso-8859-1"?>
<!-- Generator: Adobe Illustrator 19.0.0, SVG Export Plug-In . SVG Version: 6.00 Build 0)  -->
<svg version="1.1" id="Capa_1" xmlns="http://www.w3.org/2000/svg" xmlns:xlink="http://www.w3.org/1999/xlink" x="0px" y="0px"
	 viewBox="0 0 512 512" style="enable-background:new 0 0 512 512;" xml:space="preserve">
<g>
	<g>
		<path d="M467.116,179.589h-86.375V32.231c0-16.499-13.423-29.923-29.923-29.923H29.923C13.423,2.307,0,15.731,0,32.231v432.309
			c0,16.499,13.423,29.923,29.923,29.923h299.826c8.231,9.329,20.262,15.23,33.651,15.23h103.716
			c24.749,0,44.884-20.135,44.884-44.884V224.473C512,199.724,491.865,179.589,467.116,179.589z M29.923,32.231h320.895
			l0.002,47.158H29.923V32.231z M318.516,464.539H29.923V417.38h288.593V464.539z M318.516,224.473v162.984H29.923V109.312h320.899
			l0.003,72.084C332.179,186.847,318.516,204.089,318.516,224.473z M482.077,464.807c0,8.25-6.711,14.961-14.961,14.961H363.399
			c-8.25,0-14.961-6.712-14.961-14.961v-1.28h133.639V464.807z M482.077,433.604H348.438V255.676h133.639V433.604z M482.077,225.753
			H348.438v-1.28c0-8.25,6.712-14.961,14.961-14.961h103.716c8.251,0,14.962,6.711,14.962,14.961V225.753z"/>
	</g>
</g>
<g>
	<g>
		<path d="M245.951,209.289c-5.842-5.843-15.316-5.843-21.158,0l-46.107,46.107l-10.024-10.69
			c-5.653-6.027-15.12-6.331-21.148-0.679c-6.027,5.652-6.331,15.121-0.679,21.148l20.592,21.959
			c2.772,2.955,6.623,4.66,10.674,4.725c0.08,0.001,0.16,0.002,0.241,0.002c3.964,0,7.771-1.574,10.579-4.382l57.031-57.031
			C251.794,224.604,251.794,215.132,245.951,209.289z"/>
	</g>
</g>
<g>
	<g>
		<path d="M455.429,318.367c-5.842-5.843-15.315-5.843-21.158,0l-27.471,27.47l-3.296-3.514c-5.652-6.027-15.121-6.332-21.148-0.679
			c-6.027,5.652-6.331,15.12-0.679,21.148l13.864,14.784c2.771,2.955,6.622,4.66,10.673,4.725c0.08,0.001,0.16,0.002,0.241,0.002
			c3.964,0,7.771-1.574,10.579-4.382l38.395-38.395C461.272,333.683,461.272,324.211,455.429,318.367z"/>
	</g>
</g>
<g>
</g>
<g>
</g>
<g>
</g>
<g>
</g>
<g>
</g>
<g>
</g>
<g>
</g>
<g>
</g>
<g>
</g>
<g>
</g>
<g>
</g>
<g>
</g>
<g>
</g>
<g>
</g>
<g>
</g>
</svg>
